PathFileType	4	(X/Y/Z)	G:\TennisProject\Miami_Dimitrov_Sinner_masked_Sports2D\Miami_Dimitrov_Sinner_masked_Sports2D_m_person00.trc
DataRate	CameraRate	NumFrames	NumMarkers	Units	OrigDataRate	OrigDataStartFrame	OrigNumFrames
25	25	9	22	m	25	311	499
Frame#	Time	Hip			RHip			RKnee			RAnkle			RBigToe			RSmallToe			RHeel			LHip			LKnee			LAnkle			LBigToe			LSmallToe			LHeel			Neck			Head			Nose			RShoulder			RElbow			RWrist			LShoulder			LElbow			LWrist		
		X1	Y1	Z1	X2	Y2	Z2	X3	Y3	Z3	X4	Y4	Z4	X5	Y5	Z5	X6	Y6	Z6	X7	Y7	Z7	X8	Y8	Z8	X9	Y9	Z9	X10	Y10	Z10	X11	Y11	Z11	X12	Y12	Z12	X13	Y13	Z13	X14	Y14	Z14	X15	Y15	Z15	X16	Y16	Z16	X17	Y17	Z17	X18	Y18	Z18	X19	Y19	Z19	X20	Y20	Z20	X21	Y21	Z21	X22	Y22	Z22
311	12.44	19.3807309201693	0.9966195853513126	0.0	19.271652981985696	0.9876093356761836	0.0	19.216088240086737	0.6342621687416216	0.0	19.227979783132998	0.39466756948453097	0.0	19.18078831480782	0.2889668496905503	0.0	19.1493894591274	0.3213623588681395	0.0	19.258526675013496	0.3616818294891922	0.0	19.48527740294553	0.9902299699710759	0.0	19.532649551368824	0.6456293576693427	0.0	19.554757576195353	0.29323021442005737	0.0	19.550957779419452	0.1889868074622909	0.0	19.614258482984553	0.1981659673864124	0.0	19.532166784463286	0.2391015390223719	0.0	19.372713830438407	1.523600561844175	0.0	19.363146471475044	1.813842146391376	0.0	19.36514250847905	1.6543115527448644	0.0	19.19609901942287	1.4468235528117936	0.0	19.111241153589347	1.174453292845549	0.0	19.285695421054324	1.051897312400814	0.0	19.546109925086967	1.4723678067060408	0.0	19.686903187524646	1.2513884282138126	0.0	19.593478553103495	1.0996824833740997	0.0
312	12.48	19.277712570669436	1.005488051588984	0.0	19.155834561313203	1.001372851347277	0.0	19.01927619365843	0.6510689247483682	0.0	18.972584123807675	0.3290386992773771	0.0	18.865298244732102	0.2330148004957159	0.0	18.85466270260261	0.26269045466192814	0.0	19.007840937990288	0.27631900713578367	0.0	19.39182344880423	0.989813917100023	0.0	19.456607840210463	0.6248658733685639	0.0	19.54552592616033	0.28087152634609586	0.0	19.553765570580648	0.18144381690841493	0.0	19.616204520193346	0.1948882348670876	0.0	19.537746741325343	0.22707511416336504	0.0	19.261419975443015	1.5314783168690285	0.0	19.255590530625472	1.8110336726453276	0.0	19.249102671405474	1.6526983380719875	0.0	19.082696228398245	1.4698139085419006	0.0	18.99802292795476	1.1967059855327162	0.0	19.17123638435445	1.0700650876511713	0.0	19.437800694760284	1.483020284125947	0.0	19.56624281710205	1.2357910228977822	0.0	19.468962988434903	1.0743216208430235	0.0
313	12.52	19.164518747030765	1.017160649185338	0.0	19.041171846681948	1.0171687363257491	0.0	18.852632433533522	0.6720474768185517	0.0	18.8050873510461	0.2799981548364254	0.0	18.68110486447178	0.18669718097345508	0.0	18.678404113056914	0.20911422207285785	0.0	18.836931646655046	0.21685104878168798	0.0	19.285299809091487	0.9955144207343174	0.0	19.36035409992492	0.6076053877349126	0.0	19.524528608071027	0.2817745383294358	0.0	19.549275437388	0.17352873203863473	0.0	19.60274264861527	0.19249537548015977	0.0	19.54140136020162	0.23106644365533363	0.0	19.15743468224798	1.5537025296175098	0.0	19.155780129809404	1.8306075847418624	0.0	19.145046694179772	1.6714485601607887	0.0	18.97678139861693	1.5018192260994705	0.0	18.886934462525968	1.2380339386020898	0.0	19.039545675189967	1.1085875791716895	0.0	19.336481063027204	1.4995064625719785	0.0	19.46283266092084	1.2344753764426075	0.0	19.368397268220715	1.0663907550837872	0.0
314	12.56	19.04696819183808	1.0316035137149409	0.0	18.92986210176413	1.028719500048663	0.0	18.72274130774546	0.695435231981556	0.0	18.72810444617387	0.2763644920874769	0.0	18.634124010167938	0.16975747122220317	0.0	18.61713301889796	0.1869290584352805	0.0	18.76144249383788	0.21392768551340674	0.0	19.166820605797707	1.0013392361316962	0.0	19.240155614380186	0.60626713998531	0.0	19.466049589298507	0.29833598612531465	0.0	19.4990038149096	0.17480116423773395	0.0	19.54832900169364	0.19965859751683246	0.0	19.5056339700685	0.2552013136883362	0.0	19.06137779191273	1.5767051378229378	0.0	19.062065064940114	1.8484999853476682	0.0	19.0532049728682	1.693139994538656	0.0	18.879293782084712	1.5255945731449458	0.0	18.785109951701283	1.2986931380866809	0.0	18.88876172127181	1.1692754687712286	0.0	19.243007037647168	1.5094118189165562	0.0	19.36851360100451	1.238535088766605	0.0	19.259001009662356	1.0765785051802013	0.0
315	12.6	18.933851867880776	1.0448071833640395	0.0	18.821909723171878	1.0344819157488339	0.0	18.614316005029195	0.7116321676670831	0.0	18.678531395052524	0.3072685632972531	0.0	18.63379709486006	0.17973490971133121	0.0	18.596947477531813	0.19258161659197776	0.0	18.72024605512708	0.2552705741110479	0.0	19.048334224883234	1.005300015153653	0.0	19.113295659595376	0.6183062761260811	0.0	19.3514405373188	0.3099203954938432	0.0	19.371318620169955	0.1812007339751844	0.0	19.42446134562274	0.20772608170311516	0.0	19.396307978818786	0.2745982128782592	0.0	18.96805918470465	1.5873233471780646	0.0	18.96956461920248	1.8471557120420337	0.0	18.960217982006103	1.7008226151719783	0.0	18.785316476030776	1.5346177787895439	0.0	18.685681037647118	1.356894303293154	0.0	18.745417904673904	1.2204213937465347	0.0	19.151604459736838	1.5118331556899227	0.0	19.27038090716419	1.2464830770489623	0.0	19.137439102614486	1.104114957012692	0.0
316	12.64	18.82922312183805	1.0501318674074496	0.0	18.71931675126568	1.0405165319232728	0.0	18.509386474049	0.718118624707669	0.0	18.58861275989855	0.344976902876984	0.0	18.561323866401153	0.20375272556289284	0.0	18.519974674437655	0.21607777417338533	0.0	18.635035085905358	0.29950121493067194	0.0	18.9394345345452	1.0128061649076485	0.0	18.99622879382723	0.6348939515871973	0.0	19.19628460074795	0.3072932117088954	0.0	19.187918368584494	0.18074803394390626	0.0	19.248232300172308	0.20230065349166862	0.0	19.229407479229224	0.2702162318053194	0.0	18.872526746724013	1.5831517292183503	0.0	18.87224315159728	1.8453469144317494	0.0	18.859372988304838	1.6969265916756244	0.0	18.69041397386582	1.5296210312775682	0.0	18.58203604016677	1.3675258516230562	0.0	18.6361011056083	1.224985411521609	0.0	19.055449624736944	1.5095373805390735	0.0	19.1669152667623	1.2492247628825195	0.0	19.025238467625442	1.1328552324809298	0.0
317	12.68	18.730903450170658	1.0406309617169227	0.0	18.62229272103626	1.0400389002906065	0.0	18.401697325772577	0.7137102328536716	0.0	18.434890029041956	0.36268352255483116	0.0	18.36607496376736	0.22016580169553576	0.0	18.336714562577587	0.23772518190946326	0.0	18.47583869363671	0.30762306376864723	0.0	18.839020759342368	1.0157657705773713	0.0	18.88903202835077	0.6430701747362391	0.0	19.03160722930246	0.29262521316823586	0.0	18.993900929975155	0.16273862111555953	0.0	19.06137504328522	0.17489168016172535	0.0	19.050427057016684	0.24280140964744862	0.0	18.77313786763791	1.562374626362418	0.0	18.76661369537222	1.8508169028130261	0.0	18.756330131571204	1.6811852047832025	0.0	18.59404922557327	1.5087963741557715	0.0	18.48326968230467	1.3252320073664028	0.0	18.548417852586375	1.186766712607229	0.0	18.95204693009296	1.4960491862769294	0.0	19.061957387719094	1.2324561680695507	0.0	18.921154778448198	1.1323640550344998	0.0
318	12.72	18.63562084770786	1.0120880925050062	0.0	18.526639052242565	1.0147233238236193	0.0	18.293240758536697	0.6877763324039444	0.0	18.230328565344617	0.34113048430510723	0.0	18.09598104663084	0.20636313248908314	0.0	18.08144269144443	0.22980854066326387	0.0	18.25673010994955	0.27075187370970555	0.0	18.744949778404198	0.9948141739107254	0.0	18.786478435377933	0.6293884892620829	0.0	18.88701010030139	0.26057543334366234	0.0	18.8383093423069	0.12593054787130187	0.0	18.90416420886051	0.13254494131515207	0.0	18.897935986674263	0.20093166990435385	0.0	18.671154043817808	1.5203635878483166	0.0	18.6545457340898	1.82794094255403	0.0	18.65534953557882	1.6408785646748871	0.0	18.497482743423387	1.4677808454184147	0.0	18.40035004841328	1.2660203063382571	0.0	18.46125205269376	1.1263653092190642	0.0	18.845703918988765	1.4638965688486556	0.0	18.953333070603463	1.1972230431517281	0.0	18.812291276902634	1.0873845993707383	0.0
319	12.76	18.54347631539296	0.9735877060914457	0.0	18.43095336570072	0.9663307939793617	0.0	18.179290786148393	0.6413569312147377	0.0	18.0108739776277	0.28592006533075304	0.0	17.8381641253673	0.16393346032233475	0.0	17.83138837023521	0.1908131218116688	0.0	18.022353337122542	0.21097868038344458	0.0	18.657882216019253	0.9546754193383873	0.0	18.69098315304775	0.5974970308426987	0.0	18.792061840417094	0.21613242257076104	0.0	18.75823138146566	0.08587543308442534	0.0	18.81520124489022	0.09641921884102388	0.0	18.801878763343307	0.15919285643496206	0.0	18.564770329378028	1.4664511339098292	0.0	18.53975657989997	1.7540556879694986	0.0	18.550844816706217	1.5779872052523511	0.0	18.39836782204556	1.4093813111311115	0.0	18.324935197047417	1.2050127878870922	0.0	18.366694964567284	1.053828102039785	0.0	18.73934526750303	1.4232136855747137	0.0	18.836855125155424	1.1700225145368073	0.0	18.72489453093938	1.0201937169002626	0.0
